#!OML:ASF H:\Dans Jumps\Project 1\Capture day 1\Session 1\subject.ASF
:FULLY-SPECIFIED
:DEGREES
621
root 0.0808486 17.8458 -5.13342 14.3808 -1.90309 -1.67468
lowerback 0.652182 0.136235 -0.717297
upperback 4.95038 0.148284 1.18106
thorax 4.73466 0.0150103 1.6271
lowerneck -13.5951 0.769601 -0.576094
upperneck 27.9813 1.40594 -0.581399
head 11.3257 0.496827 0.0760927
rclavicle -3.10601e-015 -1.25731e-014
rhumerus -35.2127 -3.29724 -82.4299
rradius 39.7033
rwrist 19.4323
rhand -23.0721 -28.2235
rfingers 7.12502
rthumb 3.37343 -58.1765
lclavicle -3.10601e-015 -1.25731e-014
lhumerus -35.2752 -7.81567 90.0572
lradius 40.2577
lwrist 25.5861
lhand -28.546 -6.95262
lfingers 7.12502
lthumb -1.91327 23.0185
rfemur -20.3823 -4.65773 21.4403
rtibia 20.4485
rfoot -12.9572 -1.57024
rtoes 19.6942
lfemur -17.924 7.35412 -18.6041
ltibia 17.1727
lfoot -10.8162 4.63464
ltoes 9.3386
622
root 0.0803809 17.8456 -5.13298 14.3625 -1.88936 -1.68308
lowerback 0.622442 0.133671 -0.713105
upperback 4.94379 0.144699 1.18584
thorax 4.74479 0.0132655 1.62967
lowerneck -13.6019 0.779098 -0.576767
upperneck 28.0335 1.421 -0.583323
head 11.3472 0.502888 0.077684
rclavicle 1.2424e-015 2.93207e-015
rhumerus -35.2056 -3.33117 -82.404
rradius 39.6773
rwrist 19.4389
rhand -23.0721 -28.212
rfingers 7.12502
rthumb 3.37346 -58.165
lclavicle 1.2424e-015 2.93207e-015
lhumerus -35.2742 -7.80794 90.0708
lradius 40.1962
lwrist 25.549
lhand -28.5292 -6.8991
lfingers 7.12502
lthumb -1.89705 23.0722
rfemur -20.3537 -4.67425 21.4524
rtibia 20.4385
rfoot -12.957 -1.56376
rtoes 19.6872
lfemur -17.9032 7.33717 -18.5886
ltibia 17.1758
lfoot -10.8177 4.64727
ltoes 9.32194
623
root 0.0799042 17.8454 -5.13266 14.3423 -1.87405 -1.68967
lowerback 0.597247 0.131823 -0.70943
upperback 4.93754 0.142108 1.1896
thorax 4.75267 0.0120312 1.63149
lowerneck -13.6029 0.786331 -0.57848
upperneck 28.0791 1.43194 -0.581683
head 11.3649 0.507501 0.0801634
rclavicle -2.73329e-016 -1.88845e-015
rhumerus -35.1993 -3.37114 -82.3778
rradius 39.6509
rwrist 19.4516
rhand -23.0857 -28.1931
rfingers 7.12502
rthumb 3.36031 -58.1464
lclavicle -2.73329e-016 -1.88845e-015
lhumerus -35.269 -7.8096 90.0836
lradius 40.1319
lwrist 25.5113
lhand -28.5007 -6.83416
lfingers 7.12502
lthumb -1.86945 23.1374
rfemur -20.3216 -4.68546 21.4616
rtibia 20.4266
rfoot -12.9564 -1.5652
rtoes 19.6809
lfemur -17.8824 7.32105 -18.5747
ltibia 17.1811
lfoot -10.8199 4.65727
ltoes 9.30184
624
root 0.0794856 17.8452 -5.13243 14.3199 -1.85658 -1.69632
lowerback 0.577175 0.129869 -0.704006
upperback 4.9319 0.139346 1.1928
thorax 4.75827 0.0108111 1.63171
lowerneck -13.6052 0.792429 -0.577951
upperneck 28.123 1.44043 -0.579215
head 11.3822 0.511359 0.0822347
rclavicle -1.36664e-015 8.39865e-015
rhumerus -35.1907 -3.41899 -82.3516
rradius 39.6201
rwrist 19.4761
rhand -23.1064 -28.1684
rfingers 7.12502
rthumb 3.3403 -58.1219
lclavicle -1.36664e-015 8.39865e-015
lhumerus -35.261 -7.81206 90.0908
lradius 40.0684
lwrist 25.4497
lhand -28.4527 -6.68965
lfingers 7.12502
lthumb -1.82314 23.2823
rfemur -20.2859 -4.69402 21.4702
rtibia 20.4136
rfoot -12.9567 -1.57157
rtoes 19.6774
lfemur -17.8606 7.30777 -18.561
ltibia 17.1881
lfoot -10.8238 4.66212
ltoes 9.28738
